<svg  viewBox="0 0 1410 820" fill="none" xmlns="http://www.w3.org/2000/svg">
		<path class="fff"  id="mainVector"
			d="M114.852 81.822L273.134 27.0307L287.018 80.6805M287.018 80.6805L300.903 134.33M287.018 80.6805L428.639 95.5199M287.018 80.6805L517.499 27.0307M300.903 134.33L1 54.4263M300.903 134.33L406.424 151.877M300.903 134.33L428.639 95.5199M406.424 151.877L428.639 95.5199M406.424 151.877L650.789 137.258M428.639 95.5199L650.789 137.258M428.639 95.5199L517.499 27.0307M650.789 137.258L859.055 55.6499M650.789 137.258L567.483 81.822M650.789 137.258L857.666 219.534M517.499 27.0307L567.483 81.822M567.483 81.822L859.055 55.6499M859.055 55.6499L857.666 219.534M859.055 55.6499L1064.54 2M857.666 219.534L1064.54 2M857.666 219.534L1028.44 248.561M1064.54 2L1153.4 109.3M1064.54 2L1028.44 248.561M1028.44 248.561L1153.4 109.3M1028.44 248.561L1249.21 328.024M1028.44 248.561L1072.87 355.861M1153.4 109.3L1331.12 29.3957M1153.4 109.3L1185.34 204.043M1153.4 109.3L1290.16 178.71M1331.12 29.3957L1394.99 166.374M1331.12 29.3957L1290.16 178.71M1331.12 29.3957L1322.1 247.199M1185.34 204.043L1249.21 328.024M1185.34 204.043L1072.87 355.861M1290.16 178.71L1249.21 328.024M1249.21 328.024L1329.59 375.389M1249.21 328.024L1382.5 289.655M1249.21 328.024L1117.3 463.16M1249.21 328.024L1322.1 247.199M1249.21 328.024L1408 560.208M1072.87 355.861L1117.3 463.16M1394.99 166.374L1382.5 289.655M1394.99 166.374L1322.1 247.199M1382.5 289.655L1329.59 375.389M1329.59 375.389L1408 560.208M1117.3 463.16L1408 560.208M1117.3 463.16L902.543 610.627M1408 560.208L1243.64 649.306M1408 560.208L1300.25 811.468L1166.32 783.839M1408 560.208L1266.96 672.024L1166.32 783.839M902.543 610.627L1135.04 531.974M902.543 610.627L738.115 792.922M902.543 610.627L1006 689.5M902.543 610.627L774.093 636.253M1243.64 649.306L1166.32 783.839M1243.64 649.306L1006 689.5M1243.64 649.306L1135.04 531.974M1166.32 783.839L936.674 797.976M1135.04 531.974L1006 689.5M738.115 792.922L1006 689.5M738.115 792.922L936.674 797.976M738.115 792.922C738.115 796.965 607.661 811.325 542.434 818M738.115 792.922L751.325 735.399M1006 689.5L936.674 797.976M774.093 636.253L751.325 735.399M774.093 636.253L660.348 731.644M542.434 818L660.348 731.644M542.434 818L431.993 797.976M751.325 735.399L660.348 731.644"
			stroke="#fff" stroke-width="2">
			
			<animate  attributeName="d" repeatCount="indefinite" dur="7s"
				values="
				M114.852 81.822L273.134 27.0307L287.018 80.6805M287.018 80.6805L300.903 134.33M287.018 80.6805L428.639 95.5199M287.018 80.6805L517.499 27.0307M300.903 134.33L1 54.4263M300.903 134.33L406.424 151.877M300.903 134.33L428.639 95.5199M406.424 151.877L428.639 95.5199M406.424 151.877L650.789 137.258M428.639 95.5199L650.789 137.258M428.639 95.5199L517.499 27.0307M650.789 137.258L859.055 55.6499M650.789 137.258L567.483 81.822M650.789 137.258L857.666 219.534M517.499 27.0307L567.483 81.822M567.483 81.822L859.055 55.6499M859.055 55.6499L857.666 219.534M859.055 55.6499L1064.54 2M857.666 219.534L1064.54 2M857.666 219.534L1028.44 248.561M1064.54 2L1153.4 109.3M1064.54 2L1028.44 248.561M1028.44 248.561L1153.4 109.3M1028.44 248.561L1249.21 328.024M1028.44 248.561L1072.87 355.861M1153.4 109.3L1331.12 29.3957M1153.4 109.3L1185.34 204.043M1153.4 109.3L1290.16 178.71M1331.12 29.3957L1394.99 166.374M1331.12 29.3957L1290.16 178.71M1331.12 29.3957L1322.1 247.199M1185.34 204.043L1249.21 328.024M1185.34 204.043L1072.87 355.861M1290.16 178.71L1249.21 328.024M1249.21 328.024L1329.59 375.389M1249.21 328.024L1382.5 289.655M1249.21 328.024L1117.3 463.16M1249.21 328.024L1322.1 247.199M1249.21 328.024L1408 560.208M1072.87 355.861L1117.3 463.16M1394.99 166.374L1382.5 289.655M1394.99 166.374L1322.1 247.199M1382.5 289.655L1329.59 375.389M1329.59 375.389L1408 560.208M1117.3 463.16L1408 560.208M1117.3 463.16L902.543 610.627M1408 560.208L1243.64 649.306M1408 560.208L1300.25 811.468L1166.32 783.839M1408 560.208L1266.96 672.024L1166.32 783.839M902.543 610.627L1135.04 531.974M902.543 610.627L738.115 792.922M902.543 610.627L1006 689.5M902.543 610.627L774.093 636.253M1243.64 649.306L1166.32 783.839M1243.64 649.306L1006 689.5M1243.64 649.306L1135.04 531.974M1166.32 783.839L936.674 797.976M1135.04 531.974L1006 689.5M738.115 792.922L1006 689.5M738.115 792.922L936.674 797.976M738.115 792.922C738.115 796.965 607.661 811.325 542.434 818M738.115 792.922L751.325 735.399M1006 689.5L936.674 797.976M774.093 636.253L751.325 735.399M774.093 636.253L660.348 731.644M542.434 818L660.348 731.644M542.434 818L431.993 797.976M751.325 735.399L660.348 731.644;

				M 199 99 L 255 72 L 301 94 M 301 94 L 320 126 M 301 94 L 444 98 M 301 94 L 512 57 M 320 126 L 86 73 M 320 126 L 411 141 M 320 126 L 445 98 M 411 141 L 445 98 M 411 141 L 650.789 137.258 M 445 98 L 650.789 137.258 M 445 98 L 512 57 M 650.789 137.258 L 870 82 M 650.789 137.258 L 598 102 M 650.789 137.258 L 906 169 M 512 57 L 598 102 M 598 102 L 870 82 M 870 82 L 906 169 M 870 82 L 1051 71 M 906 169 L 1051 71 M 906 169 L 1054 227 M 1051 71 L 1162 135 M 1051 71 L 1054 227 M 1054 227 L 1162 135 M 1054 227 L 1239 341 M 1054 227 L 1107 364 M 1162 135 L 1318 79 M 1162 135 L 1202 244 M 1162 135 L 1286 194 M 1318 79 L 1378 189 M 1318 79 L 1286 194 M 1318 79 L 1313 258 M 1202 244 L 1240 341 M 1202 244 L 1107 365 M 1286 194 L 1239 341 M 1239 341 L 1316 378 M 1238 341 L 1382.5 289.655 M 1238 341 L 1139 472 M 1238 341 L 1313 258 M 1238 341 L 1375 559 M 1107 365 L 1139 472 M 1378 189 L 1382.5 289.655 M 1378 189 L 1313 258 M 1382.5 289.655 L 1316 378 M 1316 378 L 1375 558 M 1139 472 L 1375 559 M 1139 472 L 907 625 M 1375 559 L 1225 652 M 1375 559 L 1301 760 L 1160 768 M 1375 559 L 1251 698 L 1160 767 M 907 625 L 1124 549 M 907 625 L 742 779 M 907 625 L 993 695 M 907 625 L 777 655 M 1225 651 L 1160 767 M 1225 652 L 993 695 M 1225 651 L 1124 548 M 1160 768 L 944 785 M 1124 548 L 993 695 M 742 779 L 993 695 M 742 779 L 944 785 M 742 779 C 739 799 607.661 811.325 565 813 M 742 779 L 756 738 M 993 695 L 944 785 M 777 655 L 756 738 M 777 655 L 669 734 M 565 813 L 669 734 M 565 813 L 521 802 M 756 738 L 669 734;

				M 198 77 L 257 147 L 312 109 M 312 109 L 265 80 M 312 109 L 438 57 M 312 109 L 491 101 M 265 80 L 159 75 M 265 80 L 411 141 M 265 80 L 438 58 M 411 141 L 438 58 M 411 141 L 604 84 M 438 57 L 603 85 M 438 57 L 492 101 M 603 84 L 844 114 M 603 85 L 590 167 M 603 84 L 926 190 M 492 101 L 590 167 M 590 167 L 844 114 M 844 114 L 926 190 M 844 114 L 1065 134 M 926 190 L 1066 134 M 926 190 L 1051 211 M 1066 134 L 1148 161 M 1066 134 L 1051 211 M 1051 211 L 1148 161 M 1051 211 L 1170 334 M 1051 211 L 1150 308 M 1148 161 L 1284 100 M 1148 161 L 1163 237 M 1148 161 L 1307 195 M 1284 100 L 1360 190 M 1284 100 L 1307 195 M 1284 100 L 1282 309 M 1163 237 L 1170 334 M 1163 237 L 1150 308 M 1307 195 L 1170 334 M 1170 334 L 1304 357 M 1170 334 L 1319 286 M 1170 334 L 1159 503 M 1170 334 L 1282 309 M 1170 334 L 1278 551 M 1150 308 L 1159 503 M 1360 191 L 1318 286 M 1360 190 L 1282 309 M 1318 286 L 1304 356 M 1304 356 L 1278 551 M 1159 503 L 1278 551 M 1159 503 L 888 663 M 1278 550 L 1241 576 M 1278 550 L 1296 668 L 1128 710 M 1278 550 L 1182 718 L 1127 710 M 888 663 L 1124 549 M 888 663 L 716 760 M 888 663 L 1019 682 M 888 663 L 798 662 M 1241 576 L 1126 710 M 1241 576 L 1019 682 M 1241 576 L 1124 548 M 1126 710 L 993 739 M 1124 548 L 1019 682 M 716 760 L 1019 682 M 716 760 L 993 738 M 716 760 C 739 799 607.661 811.325 566 799 M 716 760 L 782 727 M 1019 682 L 993 739 M 798 662 L 782 727 M 798 662 L 686 727 M 566 799 L 686 727 M 566 799 L 544 826 M 782 727 L 686 727;

				M 199 99 L 255 72 L 301 94 M 301 94 L 320 126 M 301 94 L 444 98 M 301 94 L 512 57 M 320 126 L 86 73 M 320 126 L 411 141 M 320 126 L 445 98 M 411 141 L 445 98 M 411 141 L 650.789 137.258 M 445 98 L 650.789 137.258 M 445 98 L 512 57 M 650.789 137.258 L 870 82 M 650.789 137.258 L 598 102 M 650.789 137.258 L 906 169 M 512 57 L 598 102 M 598 102 L 870 82 M 870 82 L 906 169 M 870 82 L 1051 71 M 906 169 L 1051 71 M 906 169 L 1054 227 M 1051 71 L 1162 135 M 1051 71 L 1054 227 M 1054 227 L 1162 135 M 1054 227 L 1239 341 M 1054 227 L 1107 364 M 1162 135 L 1318 79 M 1162 135 L 1202 244 M 1162 135 L 1286 194 M 1318 79 L 1378 189 M 1318 79 L 1286 194 M 1318 79 L 1313 258 M 1202 244 L 1240 341 M 1202 244 L 1107 365 M 1286 194 L 1239 341 M 1239 341 L 1316 378 M 1238 341 L 1382.5 289.655 M 1238 341 L 1139 472 M 1238 341 L 1313 258 M 1238 341 L 1375 559 M 1107 365 L 1139 472 M 1378 189 L 1382.5 289.655 M 1378 189 L 1313 258 M 1382.5 289.655 L 1316 378 M 1316 378 L 1375 558 M 1139 472 L 1375 559 M 1139 472 L 907 625 M 1375 559 L 1225 652 M 1375 559 L 1301 760 L 1160 768 M 1375 559 L 1251 698 L 1160 767 M 907 625 L 1124 549 M 907 625 L 742 779 M 907 625 L 993 695 M 907 625 L 777 655 M 1225 651 L 1160 767 M 1225 652 L 993 695 M 1225 651 L 1124 548 M 1160 768 L 944 785 M 1124 548 L 993 695 M 742 779 L 993 695 M 742 779 L 944 785 M 742 779 C 739 799 607.661 811.325 565 813 M 742 779 L 756 738 M 993 695 L 944 785 M 777 655 L 756 738 M 777 655 L 669 734 M 565 813 L 669 734 M 565 813 L 521 802 M 756 738 L 669 734;


				M114.852 81.822L273.134 27.0307L287.018 80.6805M287.018 80.6805L300.903 134.33M287.018 80.6805L428.639 95.5199M287.018 80.6805L517.499 27.0307M300.903 134.33L1 54.4263M300.903 134.33L406.424 151.877M300.903 134.33L428.639 95.5199M406.424 151.877L428.639 95.5199M406.424 151.877L650.789 137.258M428.639 95.5199L650.789 137.258M428.639 95.5199L517.499 27.0307M650.789 137.258L859.055 55.6499M650.789 137.258L567.483 81.822M650.789 137.258L857.666 219.534M517.499 27.0307L567.483 81.822M567.483 81.822L859.055 55.6499M859.055 55.6499L857.666 219.534M859.055 55.6499L1064.54 2M857.666 219.534L1064.54 2M857.666 219.534L1028.44 248.561M1064.54 2L1153.4 109.3M1064.54 2L1028.44 248.561M1028.44 248.561L1153.4 109.3M1028.44 248.561L1249.21 328.024M1028.44 248.561L1072.87 355.861M1153.4 109.3L1331.12 29.3957M1153.4 109.3L1185.34 204.043M1153.4 109.3L1290.16 178.71M1331.12 29.3957L1394.99 166.374M1331.12 29.3957L1290.16 178.71M1331.12 29.3957L1322.1 247.199M1185.34 204.043L1249.21 328.024M1185.34 204.043L1072.87 355.861M1290.16 178.71L1249.21 328.024M1249.21 328.024L1329.59 375.389M1249.21 328.024L1382.5 289.655M1249.21 328.024L1117.3 463.16M1249.21 328.024L1322.1 247.199M1249.21 328.024L1408 560.208M1072.87 355.861L1117.3 463.16M1394.99 166.374L1382.5 289.655M1394.99 166.374L1322.1 247.199M1382.5 289.655L1329.59 375.389M1329.59 375.389L1408 560.208M1117.3 463.16L1408 560.208M1117.3 463.16L902.543 610.627M1408 560.208L1243.64 649.306M1408 560.208L1300.25 811.468L1166.32 783.839M1408 560.208L1266.96 672.024L1166.32 783.839M902.543 610.627L1135.04 531.974M902.543 610.627L738.115 792.922M902.543 610.627L1006 689.5M902.543 610.627L774.093 636.253M1243.64 649.306L1166.32 783.839M1243.64 649.306L1006 689.5M1243.64 649.306L1135.04 531.974M1166.32 783.839L936.674 797.976M1135.04 531.974L1006 689.5M738.115 792.922L1006 689.5M738.115 792.922L936.674 797.976M738.115 792.922C738.115 796.965 607.661 811.325 542.434 818M738.115 792.922L751.325 735.399M1006 689.5L936.674 797.976M774.093 636.253L751.325 735.399M774.093 636.253L660.348 731.644M542.434 818L660.348 731.644M542.434 818L431.993 797.976M751.325 735.399L660.348 731.644" />
		</path>
</svg>
