<svg width="386" height="664" viewBox="0 0 386 664" fill="none" xmlns="http://www.w3.org/2000/svg">
<path d="M325.963 13.5L115 13M325.963 13.5L325.79 14L305.888 91M325.963 13.5L243.493 29.113M115 13L171.023 34.726L243.493 29.113M115 13L57 2L100.247 64L243.493 105M115 13L243.493 105M346.233 185.842L312.611 280.68M346.233 185.842L378.651 57L305.888 91M346.233 185.842L336.061 113.421L305.888 91M346.233 185.842L362.442 232.94L378.651 280.039M218.989 401.519L312.611 280.68M218.989 401.519L274.15 492.239M218.989 401.519L378.651 280.039M312.611 280.68L378.651 280.039M274.15 492.239L383.507 417.851M274.15 492.239L211.523 641.47M274.15 492.239L354.151 527.539M274.15 492.239L218.98 513.217M274.15 492.239L378.651 280.039M354.151 527.539L383.507 417.851M354.151 527.539L384.096 645.607L211.523 641.47M354.151 527.539L211.523 641.47M383.507 417.851L378.651 280.039M211.523 641.47C211.523 644.78 104.712 656.536 51.3066 662M211.523 641.47L179.339 594.38M218.98 513.217L179.339 594.38M218.98 513.217L104.85 591.307M51.3066 662L104.85 591.307M51.3066 662L0.880859 605.607M179.339 594.38L104.85 591.307M243.493 29.113L305.888 91M243.493 29.113V105M305.888 91L243.493 105M57.3066 3L14 41" stroke="url(#paint0_linear_33_8)" stroke-width="2"/>
<defs>
<linearGradient id="paint0_linear_33_8" x1="583.594" y1="285.571" x2="-339.996" y2="11.8618" gradientUnits="userSpaceOnUse">
<stop stop-color="white" stop-opacity="0.07"/>
<stop offset="0.276014" stop-color="white"/>
<stop offset="1" stop-color="white" stop-opacity="0"/>
</linearGradient>
</defs>
</svg>
